<mxfile host="Electron" agent="Mozilla/5.0 (Windows NT 10.0; Win64; x64) AppleWebKit/537.36 (KHTML, like Gecko) draw.io/26.0.16 Chrome/132.0.6834.196 Electron/34.2.0 Safari/537.36" version="26.0.16">
  <diagram name="Page-1" id="DvCuOO0pds-YwiVQeU1o">
    <mxGraphModel dx="1050" dy="621" grid="1" gridSize="10" guides="1" tooltips="1" connect="1" arrows="1" fold="1" page="1" pageScale="1" pageWidth="850" pageHeight="1100" math="0" shadow="0">
      <root>
        <mxCell id="0" />
        <mxCell id="1" parent="0" />
        <mxCell id="b_JspdTuxYMvNqfAGih_-1" value="Geo model" style="text;html=1;align=center;verticalAlign=middle;whiteSpace=wrap;rounded=0;" vertex="1" parent="1">
          <mxGeometry x="190" y="130" width="70" height="30" as="geometry" />
        </mxCell>
        <mxCell id="b_JspdTuxYMvNqfAGih_-2" value="Party model" style="text;html=1;align=center;verticalAlign=middle;whiteSpace=wrap;rounded=0;" vertex="1" parent="1">
          <mxGeometry x="350" y="130" width="80" height="30" as="geometry" />
        </mxCell>
        <mxCell id="b_JspdTuxYMvNqfAGih_-8" value="" style="edgeStyle=orthogonalEdgeStyle;rounded=0;orthogonalLoop=1;jettySize=auto;html=1;fontFamily=Helvetica;fontSize=12;fontColor=default;" edge="1" parent="1" source="b_JspdTuxYMvNqfAGih_-3" target="b_JspdTuxYMvNqfAGih_-4">
          <mxGeometry relative="1" as="geometry" />
        </mxCell>
        <mxCell id="b_JspdTuxYMvNqfAGih_-3" value="Page" style="rounded=1;whiteSpace=wrap;html=1;strokeColor=none;fillColor=#F0FF05;gradientColor=#00FDFF;gradientDirection=east;" vertex="1" parent="1">
          <mxGeometry x="160" y="170" width="120" height="60" as="geometry" />
        </mxCell>
        <mxCell id="b_JspdTuxYMvNqfAGih_-4" value="Modal" style="rounded=1;whiteSpace=wrap;html=1;align=center;verticalAlign=middle;fontFamily=Helvetica;fontSize=12;fontColor=default;fillColor=#F0FF05;gradientColor=#00FDFF;gradientDirection=east;strokeColor=none;" vertex="1" parent="1">
          <mxGeometry x="160" y="280" width="120" height="60" as="geometry" />
        </mxCell>
        <mxCell id="b_JspdTuxYMvNqfAGih_-9" value="" style="edgeStyle=orthogonalEdgeStyle;rounded=0;orthogonalLoop=1;jettySize=auto;html=1;fontFamily=Helvetica;fontSize=12;fontColor=default;" edge="1" parent="1" source="b_JspdTuxYMvNqfAGih_-6" target="b_JspdTuxYMvNqfAGih_-7">
          <mxGeometry relative="1" as="geometry" />
        </mxCell>
        <mxCell id="b_JspdTuxYMvNqfAGih_-6" value="Page" style="rounded=1;whiteSpace=wrap;html=1;strokeColor=none;fillColor=#F0FF05;gradientColor=#00FDFF;gradientDirection=east;" vertex="1" parent="1">
          <mxGeometry x="330" y="170" width="120" height="60" as="geometry" />
        </mxCell>
        <mxCell id="b_JspdTuxYMvNqfAGih_-7" value="Modal" style="rounded=1;whiteSpace=wrap;html=1;align=center;verticalAlign=middle;fontFamily=Helvetica;fontSize=12;fontColor=default;fillColor=#F0FF05;gradientColor=#00FDFF;gradientDirection=east;strokeColor=none;" vertex="1" parent="1">
          <mxGeometry x="330" y="280" width="120" height="60" as="geometry" />
        </mxCell>
        <mxCell id="b_JspdTuxYMvNqfAGih_-10" value="prop drilling" style="text;html=1;align=center;verticalAlign=middle;whiteSpace=wrap;rounded=0;fontFamily=Helvetica;fontSize=12;fontColor=default;" vertex="1" parent="1">
          <mxGeometry x="270" y="100" width="70" height="30" as="geometry" />
        </mxCell>
        <mxCell id="b_JspdTuxYMvNqfAGih_-11" value="" style="shape=flexArrow;endArrow=classic;html=1;rounded=0;fontFamily=Helvetica;fontSize=12;fontColor=default;strokeColor=default;align=center;verticalAlign=middle;labelBackgroundColor=default;fillColor=#FF0909;" edge="1" parent="1">
          <mxGeometry width="50" height="50" relative="1" as="geometry">
            <mxPoint x="140" y="280" as="sourcePoint" />
            <mxPoint x="140" y="340" as="targetPoint" />
          </mxGeometry>
        </mxCell>
        <mxCell id="b_JspdTuxYMvNqfAGih_-12" value="" style="shape=flexArrow;endArrow=classic;html=1;rounded=0;fontFamily=Helvetica;fontSize=12;fontColor=default;fillColor=#FF0909;" edge="1" parent="1">
          <mxGeometry width="50" height="50" relative="1" as="geometry">
            <mxPoint x="470" y="170" as="sourcePoint" />
            <mxPoint x="470" y="340" as="targetPoint" />
          </mxGeometry>
        </mxCell>
        <mxCell id="b_JspdTuxYMvNqfAGih_-14" value="data contain country name" style="text;html=1;align=center;verticalAlign=middle;whiteSpace=wrap;rounded=0;fontFamily=Helvetica;fontSize=12;fontColor=default;" vertex="1" parent="1">
          <mxGeometry x="450" y="120" width="60" height="30" as="geometry" />
        </mxCell>
        <mxCell id="b_JspdTuxYMvNqfAGih_-15" value="data contain country name" style="text;html=1;align=center;verticalAlign=middle;whiteSpace=wrap;rounded=0;fontFamily=Helvetica;fontSize=12;fontColor=default;" vertex="1" parent="1">
          <mxGeometry x="100" y="230" width="60" height="30" as="geometry" />
        </mxCell>
      </root>
    </mxGraphModel>
  </diagram>
</mxfile>
